<svg width="42" height="39" viewBox="0 0 42 39" fill="none" xmlns="http://www.w3.org/2000/svg">
<rect x="13.09" y="0.362793" width="4.90885" height="38.1799" rx="2.45442" fill="#48E045"/>
<rect x="37.0888" y="0.362793" width="4.90885" height="38.1799" rx="2.45442" fill="#48E045"/>
<rect x="14.7262" y="4.72607" width="26.1805" height="1.63628" fill="#48E045"/>
<path d="M0.646445 22.6464C0.451183 22.8417 0.451183 23.1583 0.646445 23.3536L3.82843 26.5355C4.02369 26.7308 4.34027 26.7308 4.53553 26.5355C4.73079 26.3403 4.73079 26.0237 4.53553 25.8284L1.7071 23L4.53553 20.1716C4.73079 19.9763 4.73079 19.6597 4.53553 19.4645C4.34027 19.2692 4.02369 19.2692 3.82843 19.4645L0.646445 22.6464ZM31 22.5L0.999998 22.5V23.5L31 23.5V22.5Z" fill="#48E045"/>
</svg>
